<svg width="50" height="53" viewBox="0 0 50 53" fill="none" xmlns="http://www.w3.org/2000/svg">
<path d="M27.966 51.6042C25.5953 53.042 22.8503 52.6499 20.9787 50.6892C19.1071 48.7285 18.8576 45.7221 20.2301 43.3693L8.75094 31.3438C6.25549 33.043 2.88669 32.5202 1.0151 29.9059C-0.606949 27.4224 -0.232661 24.1546 1.7637 22.0632C3.51052 20.3639 6.13076 20.1025 8.2519 21.2789L20.2301 8.73052C19.1071 6.50841 19.3566 3.89419 20.8539 2.06422C22.7255 -0.2886 26.0944 -0.680753 28.4651 1.14922C30.8358 2.97919 31.4596 6.50843 29.8376 9.12268L41.3167 21.1482C43.4378 19.7104 46.058 19.9718 48.0544 21.5404C50.425 23.7625 50.6746 27.4224 48.5535 29.9059C46.8067 31.8666 43.9369 32.3895 41.5662 31.0823L29.588 43.6307C30.9605 46.3757 30.3366 49.7742 27.7164 51.4735L27.966 51.6042ZM23.4742 8.73052C24.7219 9.77622 26.4687 9.64551 27.7164 8.73052C28.8394 7.68482 29.3385 5.98558 28.5898 4.54775C27.966 3.24063 26.5935 2.32564 25.0962 2.58706C23.7237 2.84849 22.6007 3.76347 22.3512 5.07059C21.9769 6.50843 22.3512 7.94625 23.5989 8.86124L23.4742 8.73052ZM31.9587 38.0101L32.8321 37.2258L40.1937 29.5138C38.6964 27.5531 38.5716 24.8082 39.9441 22.7168L28.5898 10.6912C26.4687 12.129 23.9732 11.9984 22.1016 10.4298L10.2482 22.8475C11.7455 24.9389 11.7455 27.5531 10.4978 29.6445L13.7419 33.043L21.9769 41.67C23.9733 40.3629 26.4687 40.4936 28.3403 41.9315L32.0835 38.1408L31.9587 38.0101ZM43.1883 29.2524C44.0617 29.6445 45.0599 29.6445 45.9333 29.2524C47.4306 28.4681 48.304 26.8995 47.8049 25.2003C47.4305 23.6317 46.058 22.4553 44.5607 22.4553C42.9387 22.4553 41.5662 23.6317 41.1919 25.2003C40.8175 26.7688 41.5662 28.4681 43.0634 29.2524H43.1883ZM4.3839 29.6445C5.63163 30.2981 6.87941 30.1674 7.8776 29.2524C8.75101 28.4681 9.37484 27.2917 9.25007 25.9846C9.00052 24.2853 7.75279 22.9782 6.13075 22.8475C4.5087 22.8475 3.13622 23.7625 2.63713 25.331C2.13804 26.8996 2.88663 28.7295 4.3839 29.5138V29.6445ZM28.2155 46.245C28.0908 44.9379 27.3421 44.0229 26.4687 43.5C25.5953 42.9772 24.2228 42.9772 23.2246 43.5C21.7274 44.415 21.1035 46.245 21.7273 47.9442C22.3512 49.5128 24.098 50.4278 25.7201 50.0356C27.3421 49.6435 28.4651 48.0749 28.2155 46.245Z" fill="#2D7DBA"/>
</svg>
