<svg width="120" height="104" viewBox="0 0 120 104" fill="none" xmlns="http://www.w3.org/2000/svg">
<path d="M65.1923 100.962L59.7116 89.7115L54.2308 100.673C53.6539 102.115 52.5 102.981 50.7692 102.981C49.0385 102.981 47.5962 102.981 46.7308 101.538L42.1154 94.6154L32.8847 96.6346C31.1539 96.9231 29.7115 96.0577 28.8461 95.1923C27.6923 94.0384 27.6924 92.5961 28.5578 91.1538L36.9231 73.5577H12.6924C5.7693 73.5577 0 68.6538 0 62.8846V10.3846C0 4.61539 6.05776 0 12.6924 0H107.019C114.231 0 120 4.90385 120 10.9615V62.8846C120 68.9423 113.942 73.8461 107.019 73.8461H83.077L91.7308 92.0192C92.3077 93.1731 91.7308 94.6154 90.8654 95.4808C90 96.3461 88.5577 97.2115 87.1154 96.9231L77.5962 94.9038L72.9808 101.827C72.1154 102.981 70.3846 103.558 69.2308 103.269C68.0769 102.981 66.3462 102.404 65.4808 100.962H65.1923ZM80.7692 66.3461H106.731C109.038 66.3461 111.058 64.9038 111.058 62.8846V11.25C111.058 9.23077 109.327 7.5 107.019 7.5H12.4039C10.0962 7.5 8.36545 9.23077 8.36545 10.9615V62.5961C8.36545 64.6154 10.0962 66.3461 12.4039 66.3461H38.6539C36.0578 54.8077 46.4423 44.1346 59.7116 44.1346C73.2693 44.1346 83.6538 54.5192 80.7692 66.3461ZM57.6923 51.9231C50.1923 52.7885 45.577 58.8461 46.7308 64.9038C47.8846 70.9615 54.5193 75 61.4424 74.1346C68.3654 73.2692 73.5577 67.5 72.4039 61.4423C71.25 55.3846 64.9038 51.0577 57.6923 51.9231ZM47.3078 88.2692L49.6154 91.1538L54.5193 80.7692C50.7693 79.9038 47.5961 78.4615 44.7115 76.1538L39.2308 87.4038L43.2692 86.5385C45 86.25 46.4424 86.5385 47.3078 87.9808V88.2692ZM71.827 88.2692C72.6924 87.4038 74.1346 86.5384 75.577 86.8269L79.9039 87.6923L74.4231 76.4423C71.5385 79.0385 68.3654 80.1923 64.6154 81.0577L69.5192 91.4423L71.827 88.5577V88.2692Z" fill="white"/>
<path d="M85.3842 36.9238H29.7112C27.115 36.9238 25.3843 35.4815 25.3843 33.1738C25.3843 30.8661 27.115 29.4238 29.7112 29.4238H85.3842C87.9804 29.4238 89.7112 31.1546 89.7112 32.8854C89.7112 34.6161 87.9804 36.6354 85.3842 36.6354V36.9238Z" fill="white"/>
<path d="M81.3466 22.2125H37.7889C35.1928 22.2125 33.7505 20.1933 33.7505 18.4625C33.7505 16.7317 35.7697 15.001 38.0774 15.001H80.7697C83.0774 15.001 84.8081 16.4433 85.0966 18.4625C85.3851 20.4817 83.9428 22.501 81.3466 22.501V22.2125Z" fill="white"/>
</svg>
