<svg width="48" height="48" viewBox="0 0 48 48" fill="none" xmlns="http://www.w3.org/2000/svg">
<path d="M44.2225 12.936L29.2225 4.68599C29.001 4.56414 28.7523 4.50024 28.4995 4.50024C28.2467 4.50024 27.998 4.56414 27.7765 4.68599L12.7765 12.936C12.5414 13.0655 12.3452 13.2557 12.2086 13.4868C12.0721 13.718 12 13.9815 12 14.25C12 14.5185 12.0721 14.782 12.2086 15.0131C12.3452 15.2443 12.5414 15.4345 12.7765 15.564L26.9995 23.3865V39.465L22.4455 36.96L20.9995 39.5865L27.7765 43.314C27.998 43.4358 28.2467 43.4997 28.4995 43.4997C28.7523 43.4997 29.001 43.4358 29.2225 43.314L44.2225 35.064C44.4578 34.9346 44.654 34.7444 44.7907 34.5132C44.9274 34.2821 44.9995 34.0185 44.9995 33.75V14.25C44.9995 13.9815 44.9274 13.7179 44.7907 13.4868C44.654 13.2556 44.4578 13.0654 44.2225 12.936ZM28.4995 7.71299L40.387 14.25L28.4995 20.787L16.612 14.25L28.4995 7.71299ZM41.9995 32.8635L29.9995 39.4635V23.385L41.9995 16.785V32.8635Z" fill="#2D7DBA"/>
<path d="M15 24H3V21H15V24ZM18 36H6V33H18V36ZM21 30H9V27H21V30Z" fill="#2D7DBA"/>
</svg>
