<svg width="67" height="67" viewBox="0 0 67 67" fill="none" xmlns="http://www.w3.org/2000/svg">
<path d="M37.214 65.4931C34.7307 66.8694 31.9184 66.9292 29.465 65.6726C27.0416 64.446 25.4559 62.1721 24.6481 59.629L20.669 57.9536C19.2628 58.7016 17.7968 59.1803 16.1812 59.27C11.5737 59.5393 7.6244 56.1585 7.32521 51.551C7.17562 49.4866 7.62441 47.6017 8.64164 45.8365L6.93628 41.9172C5.70961 41.3487 4.30343 40.8102 3.19644 39.9126C-0.48356 36.8908 -1.11185 31.5354 1.96977 27.8853C3.2862 26.3295 4.99156 25.3422 6.93628 24.7438C7.47481 23.3676 8.04327 22.0811 8.64164 20.7347C7.62441 18.9994 7.20554 17.0846 7.32521 15.0203C7.59448 11.1308 10.5265 8.0193 14.386 7.42092C16.6 7.0619 18.7242 7.66025 20.669 8.61765C21.9854 8.0492 23.1821 7.5406 24.5883 7.00206C25.2166 5.05735 26.2338 3.29215 27.8794 1.9159C30.8413 -0.567356 35.2094 -0.657121 38.2612 1.76629C39.9964 3.11263 41.0137 4.93766 41.7018 6.94221C43.078 7.45083 44.3047 7.95944 45.681 8.61765C47.7454 7.54058 50.1089 6.94224 52.5024 7.48077C56.0628 8.25866 58.6956 11.1907 59.0546 14.8407C59.2641 16.965 58.7555 18.9097 57.7981 20.7347L59.4735 24.684C63.2133 26.0004 66.0855 28.6033 66.3847 32.7022C66.7138 37.19 63.722 40.4512 59.4735 41.9172L57.7981 45.8365C58.5161 47.2726 58.9948 48.7685 59.0846 50.4141C59.3239 55.1113 55.8533 59.0606 51.1561 59.27C49.1815 59.3598 47.3863 58.8811 45.7109 57.9536L41.7317 59.6589C40.9538 62.0524 39.5476 64.2365 37.214 65.523V65.4931ZM27.6998 58.0433C28.0888 60.8856 30.4524 62.8603 33.175 62.8603C35.8976 62.8603 38.2312 60.8856 38.6501 58.0433C38.7398 57.4151 39.0689 56.6671 39.6673 56.4577C41.3128 55.8892 42.7789 55.2908 44.3047 54.483C45.0527 54.0641 45.8904 53.9744 46.6085 54.5429C48.1044 55.7695 50.109 56.1884 51.934 55.5302C53.759 54.872 54.8959 53.4957 55.3746 51.9998C55.973 50.1448 55.614 48.2899 54.4771 46.8837C53.9086 46.1656 53.9086 45.3578 54.2976 44.55C55.0755 43.0242 55.6738 41.4983 56.2423 39.9126C56.5415 39.1048 57.2595 38.8356 58.0673 38.7458C60.8498 38.3569 62.7945 35.7539 62.6449 33.1211C62.4953 30.3386 60.5207 28.1845 57.7083 27.7955C56.9005 27.7058 56.332 27.1074 56.1226 26.4193C55.5841 24.8336 54.9857 23.3676 54.2377 21.9016C53.8189 21.0339 54.0283 20.2261 54.5668 19.5081C56.2423 17.2642 55.8234 14.2125 53.9086 12.3276C51.9938 10.4427 49.0618 10.1435 46.8478 11.819C46.0699 12.4173 45.322 12.6268 44.3945 12.1181C43.0182 11.3702 41.5522 10.7419 40.0263 10.323C39.2485 10.1136 38.7099 9.57508 38.5903 8.73735C38.2312 5.74548 35.8078 3.62126 32.9057 3.74094C30.0036 3.86061 27.7896 5.95492 27.5503 8.88696C27.4904 9.45541 26.9818 10.0537 26.4732 10.2033C24.8576 10.712 23.4514 11.3402 21.9555 12.1181C21.2374 12.4772 20.3099 12.6268 19.6517 12.0583C17.3181 10.0837 13.9971 10.3529 11.9626 12.6866C10.3171 14.5715 10.0777 17.4736 11.6335 19.5081C12.2917 20.4056 12.4413 21.1536 11.9028 22.2008C11.1548 23.6369 10.5564 25.1328 9.98797 26.6886C9.77854 27.2869 9.15025 27.7357 8.49204 27.8254C5.64976 28.1546 3.58537 30.4583 3.52554 33.2408C3.49562 35.8736 5.3805 38.3868 8.13302 38.7757C9.0605 38.8954 9.71871 39.1945 10.0478 40.122C10.6163 41.7376 11.2745 43.3234 12.0524 44.8791C12.4114 45.6271 12.172 46.405 11.6933 47.0333C10.5564 48.4993 10.2572 50.3243 10.9155 52.2092C11.4241 53.6453 12.6208 54.9916 14.3262 55.6199C16.1512 56.2781 18.1558 55.8294 19.6517 54.6027C20.3099 54.0642 21.1177 54.124 21.8358 54.483C23.4514 55.3507 24.9772 55.949 26.7424 56.5773C27.1912 56.7269 27.5503 57.5946 27.6101 58.1032L27.6998 58.0433Z" fill="white"/>
<path d="M51.6048 32.6126C51.9937 41.6181 45.7407 49.4269 37.2438 51.3118C28.7469 53.1967 19.4721 48.6191 16.0913 40.2119C12.142 30.3388 17.1085 19.3586 27.1612 15.8282C32.756 13.8536 38.9492 14.7212 43.9157 18.2816C48.3735 21.4829 51.3355 26.6887 51.5748 32.6126H51.6048ZM31.6789 47.9908C40.8939 48.9183 48.4932 41.3788 47.8948 32.3732C47.3563 24.0558 40.2955 17.8926 31.9482 18.5807C24.6181 19.1791 18.754 25.1329 18.4249 32.5228C18.0659 40.3615 23.7505 47.2129 31.6789 47.9908Z" fill="white"/>
<path d="M29.8538 38.1172L26.5627 34.7364C25.8746 34.0183 25.5754 33.2105 26.084 32.3129C26.5029 31.5949 27.6996 30.9666 28.5074 31.6547C29.4948 32.4924 30.4222 33.39 31.3796 34.3175L37.5728 28.1243C38.2609 27.4362 39.5175 27.6456 40.1458 28.3338C40.7143 28.992 40.7741 30.1588 39.9962 30.9367L32.6063 38.3266C31.8284 39.1045 30.6018 38.8352 29.8837 38.0872L29.8538 38.1172Z" fill="white"/>
</svg>
